# xmcd CD database file
#
# Track frame offsets:
#	150
#	26357
#	32132
#	50282
#	61942
#	81295
#	92135
#	93870
#	111245
#	130022
#	142387
#	145815
#	163485
#	170512
#	198097
#	214655
#	232447
#	240982
#	287922
#	290925
#
# Disc length: 4380 seconds
#
# Revision: 0
# Processed by: cddbd v1.5.2PL0 Copyright (c) Steve Scherf et al.
# Submitted via: CDex 1.51
#
DISCID=31111a14
DTITLE=Eric Lareine - L'Ampleur Des Dégats
DYEAR=1994
DGENRE=Jazz
TTITLE0=Le Chialeur
TTITLE1=A 15 Ans A 20 Ans
TTITLE2=Pam
TTITLE3=Gloria
TTITLE4=Flux Tendu Pas Désespéré
TTITLE5=Faire Et Défaire
TTITLE6=A 30 Ans
TTITLE7=La Croisade Du 1er Mai
TTITLE8=L'Enfant Bleu
TTITLE9=Fêtes De Fin D'Année
TTITLE10=A 40 Ans
TTITLE11=Le Yang Tse
TTITLE12=A 60 Ans La Chanson Des Jours
TTITLE13=Mots Cachés
TTITLE14=Défense Passive
TTITLE15=La Sentinelle
TTITLE16=A 80 Ans
TTITLE17=La Danseuse
TTITLE18=A 100 Ans
TTITLE19=Mario
EXTD=YEAR: 1994
EXTT0=
EXTT1=
EXTT2=
EXTT3=
EXTT4=
EXTT5=
EXTT6=
EXTT7=
EXTT8=
EXTT9=
EXTT10=
EXTT11=
EXTT12=
EXTT13=
EXTT14=
EXTT15=
EXTT16=
EXTT17=
EXTT18=
EXTT19=
PLAYORDER=
